<?xml version="1.0" encoding="utf-8"?>
<!-- Generator: Adobe Illustrator 19.2.1, SVG Export Plug-In . SVG Version: 6.00 Build 0)  -->
<svg version="1.1" id="Layer_1" xmlns="http://www.w3.org/2000/svg" xmlns:xlink="http://www.w3.org/1999/xlink" x="0px" y="0px"
	 viewBox="0 0 60 60" style="enable-background:new 0 0 60 60;" xml:space="preserve">
<g>
	<g>
		<path d="M20.9501953,50.9726562c0.2421875,0.2480469,0.3632812,0.5986328,0.3632812,1.0517578s-0.125,0.8056641-0.375,1.0576172
			s-0.5996094,0.3779297-1.0488281,0.3779297h-0.796875v1.3828125h-0.703125v-4.2421875h0.703125h0.8320312
			C20.3662109,50.6005859,20.7080078,50.7246094,20.9501953,50.9726562z M20.5869141,52.0361328
			c0-0.5390625-0.2324219-0.8085938-0.6972656-0.8085938h-0.796875v1.6054688h0.8320312
			C20.3662109,52.8330078,20.5869141,52.5673828,20.5869141,52.0361328z"/>
	</g>
	<g>
		<path d="M24.3017578,51.6611328v3.1816406h-0.6328125v-0.4277344c-0.2304688,0.3359375-0.5449219,0.5039062-0.9433594,0.5039062
			c-0.296875,0-0.5273438-0.0898438-0.6914062-0.2695312s-0.2460938-0.4335938-0.2460938-0.7617188v-2.2265625h0.6914062v2.1328125
			c0,0.3203125,0.1679688,0.4804688,0.5039062,0.4804688c0.1210938,0,0.2314453-0.0234375,0.3310547-0.0703125
			s0.1982422-0.1210938,0.2958984-0.2226562v-2.3203125H24.3017578z"/>
	</g>
	<g>
		<path d="M27.0439453,51.6728516l-0.140625,0.65625c-0.1171875-0.0390625-0.2441406-0.0585938-0.3808594-0.0585938
			c-0.140625,0-0.2597656,0.0253906-0.3574219,0.0761719s-0.1835938,0.1328125-0.2578125,0.2460938v2.25h-0.6914062v-3.1816406
			h0.6269531v0.4863281c0.203125-0.3671875,0.4824219-0.5507812,0.8378906-0.5507812
			C26.8173828,51.5966797,26.9384766,51.6220703,27.0439453,51.6728516z"/>
	</g>
	<g>
	</g>
	<g>
		<path d="M28.7753906,54.359375c-0.3378906-0.3691406-0.5068359-0.8857422-0.5068359-1.5498047
			c0-0.4648438,0.0771484-0.8691406,0.2314453-1.2128906s0.375-0.6083984,0.6621094-0.7939453
			s0.6240234-0.2783203,1.0107422-0.2783203c0.2109375,0,0.4169922,0.0283203,0.6181641,0.0849609
			s0.3798828,0.1357422,0.5361328,0.2373047l-0.2402344,0.5449219c-0.3085938-0.1523438-0.6171875-0.2285156-0.9257812-0.2285156
			c-0.3710938,0-0.6582031,0.1386719-0.8613281,0.4160156s-0.3046875,0.6699219-0.3046875,1.1777344
			c0,0.5,0.1044922,0.8769531,0.3134766,1.1308594s0.5185547,0.3808594,0.9287109,0.3808594
			c0.3515625,0,0.6464844-0.0683594,0.8847656-0.2050781l0.2402344,0.5332031
			c-0.125,0.0976562-0.2900391,0.1748047-0.4951172,0.2314453s-0.4267578,0.0849609-0.6650391,0.0849609
			C29.5888672,54.9130859,29.1132812,54.7285156,28.7753906,54.359375z"/>
	</g>
	<g>
		<path d="M32.0419922,54.4970703c-0.2382812-0.28125-0.3574219-0.6953125-0.3574219-1.2421875
			s0.1201172-0.9619141,0.3603516-1.2451172s0.5830078-0.4248047,1.0283203-0.4248047s0.7871094,0.1416016,1.0253906,0.4248047
			s0.3574219,0.6982422,0.3574219,1.2451172s-0.1201172,0.9609375-0.3603516,1.2421875s-0.5830078,0.421875-1.0283203,0.421875
			S32.2802734,54.7783203,32.0419922,54.4970703z M33.5771484,54.0400391c0.1132812-0.1757812,0.1699219-0.4375,0.1699219-0.7851562
			c0-0.6992188-0.2246094-1.0488281-0.6738281-1.0488281c-0.453125,0-0.6796875,0.3496094-0.6796875,1.0488281
			c0,0.3476562,0.0566406,0.609375,0.1699219,0.7851562s0.28125,0.2636719,0.5039062,0.2636719
			C33.2939453,54.3037109,33.4638672,54.2158203,33.5771484,54.0400391z"/>
	</g>
	<g>
		<path d="M35.1591797,54.0751953v-3.7441406h0.6914062v3.6152344c0,0.109375,0.0234375,0.1894531,0.0703125,0.2402344
			s0.1210938,0.0761719,0.2226562,0.0761719c0.0585938,0,0.1308594-0.0058594,0.2167969-0.0175781l0.046875,0.5859375
			c-0.140625,0.0351562-0.2890625,0.0527344-0.4453125,0.0527344
			C35.4267578,54.8837891,35.1591797,54.6142578,35.1591797,54.0751953z"/>
	</g>
	<g>
		<path d="M37.1455078,54.4970703c-0.2382812-0.28125-0.3574219-0.6953125-0.3574219-1.2421875
			s0.1201172-0.9619141,0.3603516-1.2451172s0.5830078-0.4248047,1.0283203-0.4248047s0.7871094,0.1416016,1.0253906,0.4248047
			s0.3574219,0.6982422,0.3574219,1.2451172s-0.1201172,0.9609375-0.3603516,1.2421875s-0.5830078,0.421875-1.0283203,0.421875
			S37.3837891,54.7783203,37.1455078,54.4970703z M38.6806641,54.0400391c0.1132812-0.1757812,0.1699219-0.4375,0.1699219-0.7851562
			c0-0.6992188-0.2246094-1.0488281-0.6738281-1.0488281c-0.453125,0-0.6796875,0.3496094-0.6796875,1.0488281
			c0,0.3476562,0.0566406,0.609375,0.1699219,0.7851562s0.28125,0.2636719,0.5039062,0.2636719
			C38.3974609,54.3037109,38.5673828,54.2158203,38.6806641,54.0400391z"/>
	</g>
	<g>
		<path d="M42.1025391,51.6728516l-0.140625,0.65625c-0.1171875-0.0390625-0.2441406-0.0585938-0.3808594-0.0585938
			c-0.140625,0-0.2597656,0.0253906-0.3574219,0.0761719s-0.1835938,0.1328125-0.2578125,0.2460938v2.25h-0.6914062v-3.1816406
			h0.6269531v0.4863281c0.203125-0.3671875,0.4824219-0.5507812,0.8378906-0.5507812
			C41.8759766,51.5966797,41.9970703,51.6220703,42.1025391,51.6728516z"/>
	</g>
</g>
<g>
	<path d="M30.6728992,4.6034999c-11.9418983,0-14.724699,7.2016997-15.1611996,8.6455002
		c-0.8237,2.7227001-0.5106993,5.5546999,0.8808994,7.9746008c1.5454006,2.6870003,4.2661018,4.6640987,7.4643002,5.4238987
		c0.2456017,0.0586014,0.4937,0.1108017,0.7417011,0.1635017c1.1504002,0.2437,2.2377987,0.4736996,3.0126991,1.2773991
		c0.8677006,0.8994007,1.2783012,2.0072994,1.1879997,3.2045994c-0.1089001,1.4443016-0.9487,2.8983994-2.2470989,3.8916016
		c-1.1958008,0.9139977-2.653801,1.3866997-4.0454006,1.7929001l-0.5834999,0.1641006
		c-1.972599,0.5468979-4.6742992,1.2958984-4.2684994,4.3270988c0.5805988,4.3378983,6.1718998,4.6982994,9.6665001,4.6982994
		c0.3817997,0,0.7397003-0.0038986,1.0620003-0.0078011c0.8125-0.0098,1.6371994-0.0556984,2.4516983-0.1376991
		c12.7949028-1.2753983,19.3095016-9.4131012,21-15.9951c0.3935013-1.5303001,0.592701-3.1113987,0.592701-4.6996994
		C52.4277,12.1567001,44.4980011,4.6034999,30.6728992,4.6034999z M50.8661995,29.7777996
		C49.2559013,36.0469017,43.017601,43.8027,30.7353992,45.0273018c-0.7852001,0.0781975-1.5805988,0.122097-2.3638,0.131897
		c-2.9926987,0.0361023-9.1987,0.1113014-9.7255993-3.8232994c-0.2700005-2.0165977,1.2280006-2.5887985,3.5443993-3.2304001
		l0.5967007-0.1689987c1.4818993-0.4315987,3.0400009-0.9393997,4.3726006-1.9570007
		c1.5214996-1.1641006,2.5067997-2.8876991,2.6366997-4.6112995c0.1123009-1.4897995-0.3945007-2.8638-1.4652996-3.9742012
		c-0.9878006-1.0243988-2.2779007-1.2972984-3.5254002-1.5614986c-0.2403011-0.0508003-0.4799995-0.1014996-0.7173004-0.1576996
		c-2.9312-0.6963005-5.4204006-2.5005016-6.8285999-4.9497013c-1.2709999-2.2099991-1.5445004-4.6947994-0.7910004-7.1869993
		c0.4008007-1.3247004,2.9687004-7.9346004,14.2040997-7.9346004c13.1904011,0,20.7548008,7.1889997,20.7548008,19.7231998
		C51.4277,26.8311005,51.2392998,28.3285999,50.8661995,29.7777996z"/>
	<path d="M27.2534008,7.6694002c-2.3237,0-4.2143002,1.8906994-4.2143002,4.2143993s1.8906002,4.2143011,4.2143002,4.2143011
		s4.2143993-1.8906002,4.2143993-4.2143011S29.5771008,7.6694002,27.2534008,7.6694002z M27.2534008,15.0980997
		c-1.7723999,0-3.2143002-1.4418993-3.2143002-3.2143002c0-1.7724991,1.4419003-3.2143993,3.2143002-3.2143993
		c1.7724991,0,3.2143993,1.4419003,3.2143993,3.2143993C30.4678001,13.6562004,29.0258999,15.0980997,27.2534008,15.0980997z"/>
	<path d="M44.0107002,16.3164005c0-2.3242006-1.8906021-4.2148008-4.2148018-4.2148008
		c-2.3232002,0-4.2138977,1.8906002-4.2138977,4.2148008c0,2.3237,1.8906975,4.2143993,4.2138977,4.2143993
		C42.1200981,20.5307999,44.0107002,18.6401005,44.0107002,16.3164005z M39.7958984,19.5307999
		c-1.7724991,0-3.2138977-1.4419003-3.2138977-3.2143993c0-1.772501,1.4413986-3.2148008,3.2138977-3.2148008
		c1.7725029,0,3.2148018,1.4422998,3.2148018,3.2148008C43.0107002,18.0888996,41.5684013,19.5307999,39.7958984,19.5307999z"/>
	<path d="M40.1386986,28.0209999c0,2.3237,1.8906021,4.2144012,4.2148018,4.2144012
		c2.3232994,0,4.2139015-1.8907013,4.2139015-4.2144012c0-2.3241997-1.8906021-4.2147999-4.2139015-4.2147999
		C42.0293007,23.8062,40.1386986,25.6968002,40.1386986,28.0209999z M47.5674019,28.0209999
		c0,1.772501-1.4414024,3.2143993-3.2139015,3.2143993c-1.7723999,0-3.2148018-1.4418983-3.2148018-3.2143993
		c0-1.7724991,1.4424019-3.2147999,3.2148018-3.2147999C46.1259995,24.8062,47.5674019,26.2485008,47.5674019,28.0209999z"/>
	<path d="M13.8989,23.4692001H8.4750996c-0.2763691,0-0.4999995,0.2236996-0.4999995,0.5
		c0,20.596199,2.4585004,22.1968002,3.2119002,22.1968002S14.3989,44.5653992,14.3989,23.9692001
		C14.3989,23.6928997,14.1752996,23.4692001,13.8989,23.4692001z M11.2129002,45.169899
		c-0.7222004-0.3027-2.2046003-5.7695007-2.2373104-20.7006989h4.4228106
		C13.3656998,39.4003983,11.8837996,44.8671989,11.2129002,45.169899z"/>
	<path d="M13.8599005,17.3374004H8.5141602c-0.27246,0-0.4946299,0.2178001-0.5,0.4902
		C7.98877,19.1107998,7.9751,20.4496994,7.9751,21.8467007c0,0.2762985,0.2236304,0.5,0.4999995,0.5h5.4243002
		c0.2764006,0,0.5-0.2237015,0.5-0.5c0-1.3970013-0.0141001-2.7359009-0.0394993-4.0191002
		C14.3544998,17.5552006,14.1323004,17.3374004,13.8599005,17.3374004z M8.9755898,21.3467007
		c0.0024405-1.0352001,0.0126905-2.0381012,0.0292902-3.0093002h4.3642197c0.0166006,0.971199,0.0274,1.9741001,0.0298004,3.0093002
		H8.9755898z"/>
	<path d="M11.8402996,6.5552001c-0.3978996-0.4721999-0.9424-1.1187-1.0067997-1.2144003
		c-0.1294003-0.2440996-0.4307003-0.3364-0.6758003-0.2089996C9.9135704,5.2607002,9.8198204,5.5634999,9.9487305,5.8076
		c0.7792692,1.4770999-0.1367207,2.7631998-1.0229502,4.0068998c-0.1430702,0.2005997-0.2832003,0.3973999-0.4126005,0.5903006
		C7.89746,11.3188,7.5722699,12.3506002,7.5722699,13.3892002c0,1.9482002,1.5849605,3.5331993,3.53373,3.5331993
		c1.8964005,0,3.2705002-1.3671999,3.5-3.4828997v0.0004005c0.2382002-2.1933002-0.3135004-3.8891001-1.9048004-5.8530002
		C12.4951,7.3330002,12.1680002,6.9443002,11.8402996,6.5552001z M13.6118002,13.3315001
		c-0.1357002,1.2524996-0.8656998,2.5909004-2.5058002,2.5909004c-1.3970203,0-2.5337296-1.1363001-2.5337296-2.5332003
		c0-0.8389006,0.2661095-1.6773005,0.7704992-2.4258003c0.0860004-0.1280003,0.1804199-0.2600002,0.2734404-0.3914003
		c0.9486904-0.0945997,2.6890898-0.0307999,4.0119896,1.3386002C13.6715002,12.3607998,13.6664,12.8290005,13.6118002,13.3315001z"
		/>
</g>
</svg>
